<svg data-name="Layer 1" xmlns="http://www.w3.org/2000/svg" viewBox="0 0 64 64"><path d="M40.8 8.72a21.34 21.34 0 0 1-2.86.38l-.94.06v8h2V11c.74-.07 1.47-.19 2.2-.33zM37 19.19a15.6 15.6 0 0 0 .27 2.15l2-.4a12.81 12.81 0 0 1-.27-1.85z"/><path d="M59.4 5.14a17.27 17.27 0 0 1-10.77-3.78L48 .86l-.62.5A17.32 17.32 0 0 1 36.6 5.14H33v10H6a5 5 0 0 0-5 5v28a5 5 0 0 0 5 5h12.38l-2 4H15a5 5 0 0 0-5 5v1h36v-1a5 5 0 0 0-5-5h-1.38l-2-4H50a5 5 0 0 0 5-5V34a19.34 19.34 0 0 0 8-15.6V5.14zm-19.47 28a19.28 19.28 0 0 0 5.07 3v7H11v-10zM9 31.14v14h38v-8.25l1 .29 1-.29v10.25H7v-26h26.21a19.36 19.36 0 0 0 4.66 10zm34.83 30H12.17a3 3 0 0 1 2.83-2h26a3 3 0 0 1 2.83 2zm-6.45-4H18.62l2-4h14.76zm15.62-9a3 3 0 0 1-3 3H6a3 3 0 0 1-3-3v-28a3 3 0 0 1 3-3h27v2H7a2 2 0 0 0-2 2v26a2 2 0 0 0 2 2h42a2 2 0 0 0 2-2v-11a19.31 19.31 0 0 0 2-.95zm8-29.77A17.33 17.33 0 0 1 48.49 35l-.49.1-.49-.1A17.33 17.33 0 0 1 35 18.37V7.14h1.6A19.3 19.3 0 0 0 48 3.4a19.3 19.3 0 0 0 11.4 3.74H61z"/><path d="M53 17.32v-5.18a5 5 0 1 0-10 0v5.18a3 3 0 0 0-2 2.82v8a3 3 0 0 0 3 3h8a3 3 0 0 0 3-3v-8a3 3 0 0 0-2-2.82zm-5-8.18a3 3 0 0 1 3 3v5h-6v-5a3 3 0 0 1 3-3zm5 19a1 1 0 0 1-1 1h-8a1 1 0 0 1-1-1v-8a1 1 0 0 1 1-1h8a1 1 0 0 1 1 1z"/><path d="M48 20.14A3 3 0 0 0 47 26v2.18h2V26a3 3 0 0 0-1-5.82zm0 4a1 1 0 1 1 1-1 1 1 0 0 1-1 1zM37 35.14h2v2h-2zM37 39.14h2v2h-2zM35 37.14h2v2h-2zM39 37.14h2v2h-2zM27 35.14h2v2h-2zM27 39.14h2v2h-2zM25 37.14h2v2h-2zM29 37.14h2v2h-2zM17 35.14h2v2h-2zM17 39.14h2v2h-2zM15 37.14h2v2h-2zM19 37.14h2v2h-2zM9 29.14h8v-6H9zm2-4h4v2h-4zM19 23.14v6h12v-6zm10 4h-8v-2h8z"/></svg>