<svg id="Layer_1" data-name="Layer 1" xmlns="http://www.w3.org/2000/svg" viewBox="0 0 64 64"><path d="M40.8,8.72a21.34,21.34,0,0,1-2.86.38L37,9.16v8h2V11c.74-.07,1.47-.19,2.2-.33Z"/><path d="M37,19.19a15.6,15.6,0,0,0,.27,2.15l2-.4A12.81,12.81,0,0,1,39,19.09Z"/><path d="M59.4,5.14A17.27,17.27,0,0,1,48.63,1.36L48,.86l-.62.5A17.32,17.32,0,0,1,36.6,5.14H33v10H6a5,5,0,0,0-5,5v28a5,5,0,0,0,5,5H18.38l-2,4H15a5,5,0,0,0-5,5v1H46v-1a5,5,0,0,0-5-5H39.62l-2-4H50a5,5,0,0,0,5-5V34a19.34,19.34,0,0,0,8-15.6V5.14Zm-19.47,28a19.28,19.28,0,0,0,5.07,3v7H11v-10ZM9,31.14v14H47V36.89l1,.29,1-.29V47.14H7v-26H33.21a19.36,19.36,0,0,0,4.66,10Zm34.83,30H12.17a3,3,0,0,1,2.83-2H41A3,3,0,0,1,43.83,61.14Zm-6.45-4H18.62l2-4H35.38Zm15.62-9a3,3,0,0,1-3,3H6a3,3,0,0,1-3-3v-28a3,3,0,0,1,3-3H33v1.23c0,.26,0,.51,0,.77H7a2,2,0,0,0-2,2v26a2,2,0,0,0,2,2H49a2,2,0,0,0,2-2v-11a19.31,19.31,0,0,0,2-.95Zm8-29.77A17.33,17.33,0,0,1,48.49,35L48,35.1,47.51,35A17.33,17.33,0,0,1,35,18.37V7.14h1.6A19.3,19.3,0,0,0,48,3.4,19.3,19.3,0,0,0,59.4,7.14H61Z"/><path d="M53,17.32V12.14a5,5,0,1,0-10,0v5.18a3,3,0,0,0-2,2.82v8a3,3,0,0,0,3,3h8a3,3,0,0,0,3-3v-8A3,3,0,0,0,53,17.32ZM48,9.14a3,3,0,0,1,3,3v5H45v-5A3,3,0,0,1,48,9.14Zm5,19a1,1,0,0,1-1,1H44a1,1,0,0,1-1-1v-8a1,1,0,0,1,1-1h8a1,1,0,0,1,1,1Z"/><path d="M48,20.14A3,3,0,0,0,47,26v2.18h2V26a3,3,0,0,0-1-5.82Zm0,4a1,1,0,1,1,1-1A1,1,0,0,1,48,24.14Z"/><rect x="37" y="35.14" width="2" height="2"/><rect x="37" y="39.14" width="2" height="2"/><rect x="35" y="37.14" width="2" height="2"/><rect x="39" y="37.14" width="2" height="2"/><rect x="27" y="35.14" width="2" height="2"/><rect x="27" y="39.14" width="2" height="2"/><rect x="25" y="37.14" width="2" height="2"/><rect x="29" y="37.14" width="2" height="2"/><rect x="17" y="35.14" width="2" height="2"/><rect x="17" y="39.14" width="2" height="2"/><rect x="15" y="37.14" width="2" height="2"/><rect x="19" y="37.14" width="2" height="2"/><path d="M9,29.14h8v-6H9Zm2-4h4v2H11Z"/><path d="M19,23.14v6H31v-6Zm10,4H21v-2h8Z"/></svg>