<svg width="16" height="16" viewBox="0 0 16 16" fill="none" xmlns="http://www.w3.org/2000/svg">
<path d="M8.47305 8.93359C8.41108 8.99607 8.33734 9.04567 8.2561 9.07952C8.17486 9.11336 8.08773 9.13079 7.99972 9.13079C7.91171 9.13079 7.82457 9.11336 7.74333 9.07952C7.6621 9.04567 7.58836 8.99607 7.52639 8.93359L4.47305 5.87359C4.41107 5.8111 4.33734 5.76151 4.2561 5.72766C4.17486 5.69381 4.08772 5.67639 3.99972 5.67639C3.91171 5.67639 3.82457 5.69381 3.74333 5.72766C3.66209 5.76151 3.58836 5.8111 3.52638 5.87359C3.40221 5.9985 3.33252 6.16746 3.33252 6.34359C3.33252 6.51971 3.40221 6.68868 3.52638 6.81359L6.58638 9.87359C6.96139 10.2481 7.46972 10.4585 7.99972 10.4585C8.52972 10.4585 9.03805 10.2481 9.41305 9.87359L12.4731 6.81359C12.5962 6.68941 12.6657 6.52182 12.6664 6.34692C12.6669 6.25918 12.6501 6.17221 12.6169 6.09098C12.5837 6.00976 12.5348 5.93588 12.4731 5.87359C12.4111 5.8111 12.3373 5.76151 12.2561 5.72766C12.1749 5.69381 12.0877 5.67639 11.9997 5.67639C11.9117 5.67639 11.8246 5.69381 11.7433 5.72766C11.6621 5.76151 11.5884 5.8111 11.5264 5.87359L8.47305 8.93359Z" fill="#FD9222"/>
</svg>
