<svg width="22" height="22" viewBox="0 0 22 22" fill="none" xmlns="http://www.w3.org/2000/svg">
<path d="M15.5835 1.83325H6.41683C3.88552 1.83325 1.8335 3.88528 1.8335 6.41658V15.5833C1.8335 18.1146 3.88552 20.1666 6.41683 20.1666H15.5835C18.1148 20.1666 20.1668 18.1146 20.1668 15.5833V6.41658C20.1668 3.88528 18.1148 1.83325 15.5835 1.83325Z" stroke="#111111" stroke-width="1.5" stroke-linecap="round" stroke-linejoin="round"/>
<path d="M14.6667 10.4225C14.7799 11.1854 14.6495 11.9646 14.2943 12.6491C13.9391 13.3337 13.3771 13.8888 12.6882 14.2356C11.9993 14.5823 11.2186 14.703 10.4572 14.5805C9.69576 14.4579 8.99234 14.0984 8.44699 13.5531C7.90165 13.0078 7.54214 12.3043 7.41962 11.5429C7.29709 10.7815 7.41778 10.0008 7.76452 9.31188C8.11126 8.62298 8.66639 8.06096 9.35096 7.70575C10.0355 7.35055 10.8147 7.22024 11.5776 7.33337C12.3557 7.44876 13.0762 7.81137 13.6324 8.36765C14.1887 8.92392 14.5513 9.64435 14.6667 10.4225Z" stroke="#111111" stroke-width="1.5" stroke-linecap="round" stroke-linejoin="round"/>
<path d="M14.6667 10.4225C14.7799 11.1854 14.6495 11.9646 14.2943 12.6491C13.9391 13.3337 13.3771 13.8888 12.6882 14.2356C11.9993 14.5823 11.2186 14.703 10.4572 14.5805C9.69576 14.4579 8.99234 14.0984 8.44699 13.5531C7.90165 13.0078 7.54214 12.3043 7.41962 11.5429C7.29709 10.7815 7.41778 10.0008 7.76452 9.31188C8.11126 8.62298 8.66639 8.06096 9.35096 7.70575C10.0355 7.35055 10.8147 7.22024 11.5776 7.33337C12.3557 7.44876 13.0762 7.81137 13.6324 8.36765C14.1887 8.92392 14.5513 9.64435 14.6667 10.4225Z" stroke="#111111" stroke-width="1.5" stroke-linecap="round" stroke-linejoin="round"/>
<path d="M16.0415 5.95825H16.0515" stroke="#111111" stroke-width="1.5" stroke-linecap="round" stroke-linejoin="round"/>
<path d="M16.0415 5.95825H16.0515" stroke="#111111" stroke-width="1.5" stroke-linecap="round" stroke-linejoin="round"/>
</svg>
