<svg width="38" height="38" viewBox="0 0 38 38" fill="none" xmlns="http://www.w3.org/2000/svg">
<ellipse cx="19" cy="19" rx="19" ry="19" transform="matrix(0 1 1 0 0 0)" fill="white"/>
<path d="M19.6512 20.2834C19.566 20.3693 19.4646 20.4375 19.3529 20.484C19.2412 20.5306 19.1214 20.5545 19.0004 20.5545C18.8794 20.5545 18.7596 20.5306 18.6479 20.484C18.5362 20.4375 18.4348 20.3693 18.3496 20.2834L14.1512 16.0759C14.066 15.99 13.9646 15.9218 13.8529 15.8752C13.7412 15.8287 13.6214 15.8047 13.5004 15.8047C13.3794 15.8047 13.2596 15.8287 13.1479 15.8752C13.0362 15.9218 12.9348 15.99 12.8496 16.0759C12.6788 16.2476 12.583 16.48 12.583 16.7221C12.583 16.9643 12.6788 17.1966 12.8496 17.3684L17.0571 21.5759C17.5727 22.0909 18.2717 22.3801 19.0004 22.3801C19.7292 22.3801 20.4281 22.0909 20.9437 21.5759L25.1512 17.3684C25.3206 17.1976 25.4161 16.9672 25.4171 16.7267C25.4178 16.6061 25.3947 16.4865 25.349 16.3748C25.3034 16.2631 25.2362 16.1615 25.1512 16.0759C25.066 15.99 24.9647 15.9218 24.8529 15.8752C24.7412 15.8287 24.6214 15.8047 24.5004 15.8047C24.3794 15.8047 24.2596 15.8287 24.1479 15.8752C24.0362 15.9218 23.9348 15.99 23.8496 16.0759L19.6512 20.2834Z" fill="#FD9222"/>
</svg>
