<svg width="28" height="28" viewBox="0 0 28 28" fill="none" xmlns="http://www.w3.org/2000/svg">
<ellipse cx="14" cy="14" rx="14" ry="14" transform="matrix(0 1 1 0 0 0)" fill="white"/>
<path d="M14.4731 14.9336C14.4111 14.9961 14.3373 15.0457 14.2561 15.0795C14.1749 15.1134 14.0877 15.1308 13.9997 15.1308C13.9117 15.1308 13.8246 15.1134 13.7433 15.0795C13.6621 15.0457 13.5884 14.9961 13.5264 14.9336L10.473 11.8736C10.4111 11.8111 10.3373 11.7615 10.2561 11.7277C10.1749 11.6938 10.0877 11.6764 9.99972 11.6764C9.91171 11.6764 9.82457 11.6938 9.74333 11.7277C9.66209 11.7615 9.58836 11.8111 9.52638 11.8736C9.40221 11.9985 9.33252 12.1675 9.33252 12.3436C9.33252 12.5197 9.40221 12.6887 9.52638 12.8136L12.5864 15.8736C12.9614 16.2481 13.4697 16.4585 13.9997 16.4585C14.5297 16.4585 15.0381 16.2481 15.4131 15.8736L18.4731 12.8136C18.5962 12.6894 18.6657 12.5218 18.6664 12.3469C18.6669 12.2592 18.6501 12.1722 18.6169 12.091C18.5837 12.0098 18.5348 11.9359 18.4731 11.8736C18.4111 11.8111 18.3373 11.7615 18.2561 11.7277C18.1749 11.6938 18.0877 11.6764 17.9997 11.6764C17.9117 11.6764 17.8246 11.6938 17.7433 11.7277C17.6621 11.7615 17.5884 11.8111 17.5264 11.8736L14.4731 14.9336Z" fill="#FD9222"/>
</svg>
