<svg aria-hidden="true" style="position: absolute; width: 0; height: 0; overflow: hidden;" version="1.1" xmlns="http://www.w3.org/2000/svg" xmlns:xlink="http://www.w3.org/1999/xlink">
<defs>
<symbol id="advanteges-icon-Vector" viewBox="0 0 31 32">
<path fill="#000" style="fill: var(--color1, #000)" d="M13.045 0.456l8.306 8.316 0.088-0.088c0.174-0.17 0.407-0.267 0.65-0.27s0.478 0.089 0.656 0.255l0.963 0.963c0.337 0.337 0.348 0.85 0.092 1.207l-0.004 0.008-0.158 0.212 6.797 6.797c0.607 0.607 0.607 1.578 0 2.185l-10.406 10.406c-0.607 0.607-1.578 0.607-2.185 0l-4.907-4.907c-0.081 0.103-0.184 0.187-0.3 0.247s-0.244 0.095-0.375 0.103c-0.131 0.007-0.262-0.013-0.384-0.060s-0.234-0.119-0.326-0.212l-2.869-2.869c-0.17-0.174-0.267-0.407-0.27-0.65s0.089-0.478 0.255-0.656l0.007-0.008 0.085-0.084-8.306-8.306c-0.607-0.607-0.607-1.578 0-2.185l10.405-10.405c0.607-0.607 1.578-0.607 2.185 0v0.001zM20.308 9.813l-1.938-1.937c-0.061-0.063-0.134-0.113-0.214-0.147s-0.167-0.052-0.255-0.052c-0.087 0-0.174 0.018-0.255 0.052s-0.154 0.084-0.214 0.147l-3.95 3.95c-0.063 0.062-0.112 0.136-0.146 0.217s-0.051 0.169-0.051 0.257 0.017 0.176 0.051 0.257c0.034 0.081 0.084 0.155 0.146 0.217l1.93 1.93 0.673-0.673-1.727-1.727 3.542-3.553 1.731 1.737 0.676-0.676zM14.707 15.41l-1.935-1.935c-0.061-0.063-0.134-0.113-0.214-0.147s-0.167-0.052-0.255-0.052c-0.088 0-0.174 0.018-0.255 0.052s-0.153 0.084-0.214 0.147l-3.961 3.961c-0.265 0.254-0.265 0.673 0 0.938l1.933 1.933 0.68-0.68-1.732-1.726 3.553-3.542 1.726 1.725 0.675-0.674zM7.528 6.834l3.95 3.95c0.265 0.265 0.684 0.265 0.938-0.011l3.95-3.95c0.063-0.060 0.113-0.132 0.147-0.211s0.052-0.165 0.052-0.252h0.011c0-0.166-0.066-0.342-0.199-0.474l-3.95-3.95c-0.062-0.063-0.136-0.113-0.217-0.147s-0.169-0.051-0.257-0.051c-0.088 0-0.176 0.018-0.257 0.051s-0.155 0.084-0.217 0.147l-3.95 3.961c-0.265 0.254-0.265 0.673 0 0.938zM1.933 12.428l3.95 3.95c0.265 0.265 0.684 0.265 0.938 0l3.95-3.95c0.064-0.061 0.115-0.135 0.149-0.216s0.051-0.17 0.050-0.258h0.011c0-0.177-0.066-0.342-0.199-0.474l-3.95-3.95c-0.061-0.063-0.134-0.113-0.214-0.147s-0.167-0.052-0.255-0.052c-0.087 0-0.174 0.018-0.255 0.052s-0.153 0.084-0.214 0.147l-3.961 3.961c-0.265 0.254-0.265 0.673 0 0.938zM9.583 22.088l2.606 2.607 10.633-14.389-0.723-0.723-12.516 12.504z"></path>
<path fill="#fd9222" style="fill: var(--color2, #fd9222)" d="M13.045 0.456l8.306 8.316 0.088-0.088c0.174-0.17 0.407-0.267 0.65-0.27s0.478 0.089 0.656 0.255l0.963 0.963c0.337 0.337 0.348 0.85 0.092 1.207l-0.004 0.008-0.158 0.212 6.797 6.797c0.607 0.607 0.607 1.578 0 2.185l-10.406 10.406c-0.607 0.607-1.578 0.607-2.185 0l-4.907-4.907c-0.081 0.103-0.184 0.187-0.3 0.247s-0.244 0.095-0.375 0.103c-0.131 0.007-0.262-0.013-0.384-0.060s-0.234-0.119-0.326-0.212l-2.869-2.869c-0.17-0.174-0.267-0.407-0.27-0.65s0.089-0.478 0.255-0.656l0.007-0.008 0.085-0.084-8.306-8.306c-0.607-0.607-0.607-1.578 0-2.185l10.405-10.405c0.607-0.607 1.578-0.607 2.185 0v0.001zM20.308 9.813l-1.938-1.937c-0.061-0.063-0.134-0.113-0.214-0.147s-0.167-0.052-0.255-0.052c-0.087 0-0.174 0.018-0.255 0.052s-0.154 0.084-0.214 0.147l-3.95 3.95c-0.063 0.062-0.112 0.136-0.146 0.217s-0.051 0.169-0.051 0.257 0.017 0.176 0.051 0.257c0.034 0.081 0.084 0.155 0.146 0.217l1.93 1.93 0.673-0.673-1.727-1.727 3.542-3.553 1.731 1.737 0.676-0.676zM14.707 15.41l-1.935-1.935c-0.061-0.063-0.134-0.113-0.214-0.147s-0.167-0.052-0.255-0.052c-0.088 0-0.174 0.018-0.255 0.052s-0.153 0.084-0.214 0.147l-3.961 3.961c-0.265 0.254-0.265 0.673 0 0.938l1.933 1.933 0.68-0.68-1.732-1.726 3.553-3.542 1.726 1.725 0.675-0.674zM7.528 6.834l3.95 3.95c0.265 0.265 0.684 0.265 0.938-0.011l3.95-3.95c0.063-0.060 0.113-0.132 0.147-0.211s0.052-0.165 0.052-0.252h0.011c0-0.166-0.066-0.342-0.199-0.474l-3.95-3.95c-0.062-0.063-0.136-0.113-0.217-0.147s-0.169-0.051-0.257-0.051c-0.088 0-0.176 0.018-0.257 0.051s-0.155 0.084-0.217 0.147l-3.95 3.961c-0.265 0.254-0.265 0.673 0 0.938zM1.933 12.428l3.95 3.95c0.265 0.265 0.684 0.265 0.938 0l3.95-3.95c0.064-0.061 0.115-0.135 0.149-0.216s0.051-0.17 0.050-0.258h0.011c0-0.177-0.066-0.342-0.199-0.474l-3.95-3.95c-0.061-0.063-0.134-0.113-0.214-0.147s-0.167-0.052-0.255-0.052c-0.087 0-0.174 0.018-0.255 0.052s-0.153 0.084-0.214 0.147l-3.961 3.961c-0.265 0.254-0.265 0.673 0 0.938zM9.583 22.088l2.606 2.607 10.633-14.389-0.723-0.723-12.516 12.504z"></path>
</symbol>
<symbol id="advanteges-icon-Vector-2" viewBox="0 0 32 32">
<path fill="#fd9222" style="fill: var(--color2, #fd9222)" d="M15.373 13.835c-0.894-1.086-1.345-2.418-1.345-3.751 0-4.941 5.921-9.877 11.842-9.877 3.269 0 5.921 2.653 5.921 5.922 0 5.922-4.934 11.845-9.881 11.845-1.332 0-2.665-0.45-3.75-1.345l-14.581 14.584c-0.771 0.771-2.023 0.771-2.794 0s-0.771-2.024 0-2.795l14.587-14.584z"></path>
</symbol>
<symbol id="advanteges-icon-Vector-1" viewBox="0 0 32 32">
<path fill="#fd9222" style="fill: var(--color1, #fd9222)" d="M16 0.762c-8.381 0-15.238 6.857-15.238 15.238s6.857 15.238 15.238 15.238c8.381 0 15.238-6.857 15.238-15.238s-6.857-15.238-15.238-15.238zM16 28.191c-6.705 0-12.191-5.486-12.191-12.19s5.486-12.191 12.191-12.191c6.705 0 12.19 5.486 12.19 12.191s-5.486 12.19-12.19 12.19z"></path>
<path fill="#fd9222" style="fill: var(--color1, #fd9222)" d="M17.981 14.476h-3.962c-0.762 0-1.371-0.61-1.371-1.371s0.61-1.371 1.371-1.371h5.638c0.914 0 1.524-0.61 1.524-1.524s-0.61-1.524-1.524-1.524h-2.133v-1.371c0-0.914-0.61-1.524-1.524-1.524s-1.524 0.61-1.524 1.524v1.371h-0.457c-2.438 0-4.419 1.981-4.419 4.419s1.981 4.419 4.419 4.419h3.809c0.762 0 1.371 0.61 1.371 1.371s-0.61 1.371-1.371 1.371h-5.638c-0.914 0-1.524 0.61-1.524 1.524s0.61 1.524 1.524 1.524h2.286v1.371c0 0.914 0.61 1.524 1.524 1.524s1.524-0.61 1.524-1.524v-1.371h0.457c2.438 0 4.419-1.981 4.419-4.419s-1.981-4.419-4.419-4.419z"></path>
</symbol>
</defs>
</svg>
